<svg width="18" height="18" viewBox="0 0 18 18" fill="none" xmlns="http://www.w3.org/2000/svg">
<path d="M17.2969 12.375C17.6852 12.375 18 12.0602 18 11.6719V4.21875C18 2.66794 16.7383 1.40625 15.1875 1.40625H14.2734V0.703125C14.2734 0.314789 13.9586 0 13.5703 0C13.182 0 12.8672 0.314789 12.8672 0.703125V1.40625H9.66797V0.703125C9.66797 0.314789 9.35318 0 8.96484 0C8.57651 0 8.26172 0.314789 8.26172 0.703125V1.40625H5.09766V0.703125C5.09766 0.314789 4.78287 0 4.39453 0C4.0062 0 3.69141 0.314789 3.69141 0.703125V1.40625H2.8125C1.26169 1.40625 0 2.66794 0 4.21875V15.1875C0 16.7383 1.26169 18 2.8125 18H15.1875C16.7383 18 18 16.7383 18 15.1875C18 14.7992 17.6852 14.4844 17.2969 14.4844C16.9085 14.4844 16.5938 14.7992 16.5938 15.1875C16.5938 15.9629 15.9629 16.5938 15.1875 16.5938H2.8125C2.03709 16.5938 1.40625 15.9629 1.40625 15.1875V4.21875C1.40625 3.44334 2.03709 2.8125 2.8125 2.8125H3.69141V3.51562C3.69141 3.90396 4.0062 4.21875 4.39453 4.21875C4.78287 4.21875 5.09766 3.90396 5.09766 3.51562V2.8125H8.26172V3.51562C8.26172 3.90396 8.57651 4.21875 8.96484 4.21875C9.35318 4.21875 9.66797 3.90396 9.66797 3.51562V2.8125H12.8672V3.51562C12.8672 3.90396 13.182 4.21875 13.5703 4.21875C13.9586 4.21875 14.2734 3.90396 14.2734 3.51562V2.8125H15.1875C15.9629 2.8125 16.5938 3.44334 16.5938 4.21875V11.6719C16.5938 12.0602 16.9085 12.375 17.2969 12.375Z" fill="black"/>
</svg>
